<mxfile host="app.diagrams.net" modified="2024-04-23T09:41:08.605Z" agent="Mozilla/5.0 (Windows NT 10.0; Win64; x64) AppleWebKit/537.36 (KHTML, like Gecko) Chrome/124.0.0.0 Safari/537.36" version="24.2.8" etag="HiSDqhRXRMGY8yVfFT0N" type="github">
  <diagram name="第 1 页" id="OkPsT_IW5kjx7w04LjVZ">
    <mxGraphModel>
      <root>
        <mxCell id="0" />
        <mxCell id="1" parent="0" />
      </root>
    </mxGraphModel>
  </diagram>
</mxfile>
